<?xml version="1.0" encoding="UTF-8" standalone="no"?>
<!-- Generator: Adobe Illustrator 19.0.0, SVG Export Plug-In . SVG Version: 6.00 Build 0)  -->

<svg
   xmlns:dc="http://purl.org/dc/elements/1.1/"
   xmlns:cc="http://creativecommons.org/ns#"
   xmlns:rdf="http://www.w3.org/1999/02/22-rdf-syntax-ns#"
   xmlns:svg="http://www.w3.org/2000/svg"
   xmlns="http://www.w3.org/2000/svg"
   xmlns:xlink="http://www.w3.org/1999/xlink"
   xmlns:sodipodi="http://sodipodi.sourceforge.net/DTD/sodipodi-0.dtd"
   xmlns:inkscape="http://www.inkscape.org/namespaces/inkscape"
   version="1.1"
   id="Capa_1"
   x="0px"
   y="0px"
   viewBox="0 0 480 480"
   style="enable-background:new 0 0 480 480;"
   xml:space="preserve"
   inkscape:version="0.91 r13725"
   sodipodi:docname="head.svg"><metadata
     id="metadata49"><rdf:RDF><cc:Work
         rdf:about=""><dc:format>image/svg+xml</dc:format><dc:type
           rdf:resource="http://purl.org/dc/dcmitype/StillImage" /><dc:title></dc:title></cc:Work></rdf:RDF></metadata><defs
     id="defs47"><linearGradient
       inkscape:collect="always"
       id="linearGradient4852"><stop
         style="stop-color:#00c7ff;stop-opacity:1"
         offset="0"
         id="stop4854" /><stop
         style="stop-color:#001e9e;stop-opacity:1"
         offset="1"
         id="stop4856" /></linearGradient><linearGradient
       inkscape:collect="always"
       xlink:href="#linearGradient4852"
       id="linearGradient4858"
       x1="130.575"
       y1="70.102997"
       x2="408"
       y2="480"
       gradientUnits="userSpaceOnUse" /><linearGradient
       inkscape:collect="always"
       xlink:href="#linearGradient4852"
       id="linearGradient5345"
       gradientUnits="userSpaceOnUse"
       x1="130.575"
       y1="70.102997"
       x2="408"
       y2="480" /></defs><sodipodi:namedview
     pagecolor="#ffffff"
     bordercolor="#666666"
     borderopacity="1"
     objecttolerance="10"
     gridtolerance="10"
     guidetolerance="10"
     inkscape:pageopacity="0"
     inkscape:pageshadow="2"
     inkscape:window-width="1394"
     inkscape:window-height="911"
     id="namedview45"
     showgrid="false"
     inkscape:snap-smooth-nodes="true"
     inkscape:object-nodes="true"
     inkscape:zoom="0.69532167"
     inkscape:cx="368.79919"
     inkscape:cy="29.962674"
     inkscape:window-x="448"
     inkscape:window-y="219"
     inkscape:window-maximized="0"
     inkscape:current-layer="Capa_1" /><g
     id="g5"
     transform="matrix(0.9,0,0,0.9,24,23.999975)"><path
       inkscape:connector-curvature="0"
       id="path7"
       d="m 408,480 c 4.418,0 8,-3.582 8,-8 0.174,-84.198 -32.646,-165.113 -91.424,-225.4 l -4.576,-4.711 0,-110.576 15.152,-15.144 c 22.426,-22.412 22.438,-58.761 0.025,-81.187 -1.872,-1.874 -3.872,-3.615 -5.985,-5.213 l 6.4,-19.2 C 337.01,6.385 334.768,1.843 330.583,0.424 329.752,0.142 328.879,-0.001 328,0 L 253.256,0 C 223.304,-0.088 194.47,11.374 172.752,32 l -4.072,0 c -21.044,0 -38.104,17.059 -38.105,38.103 0,10.106 4.014,19.799 11.161,26.945 l 18.264,18.265 0,126.576 -4.568,4.712 C 96.648,306.884 63.825,387.801 64,472 c 0,4.418 3.582,8 8,8 z M 304,234.24 240,255.568 176,234.24 176,114.808 203.496,80.408 249,85.464 c 16.083,1.754 32.301,-1.776 46.2,-10.056 0.488,-0.296 0.944,-0.64 1.424,-0.944 4.812,9.104 7.343,19.239 7.376,29.536 z"
       sodipodi:nodetypes="cccccccccccccscccccccccccccccccc"
       style="fill:url(#linearGradient5345);fill-opacity:1" /></g><g
     id="g9"><g
       id="g11"><path
         d="M373.392,410.096l-15.712-15.72c-2.312-2.309-5.796-2.981-8.8-1.696l-56,24c-4.037,1.684-5.945,6.321-4.261,10.358    c0.271,0.65,0.628,1.262,1.061,1.818l-49.84,18.656l-93.312-31.096c-2.574-0.86-5.408-0.357-7.528,1.336l-40,32    c-3.451,2.761-4.009,7.797-1.248,11.248c2.761,3.451,7.797,4.009,11.248,1.248l36.6-29.28l91.872,30.616h0.072    c0.792,0.267,1.621,0.407,2.456,0.416c0.895-0.011,1.781-0.171,2.624-0.472c0.061-0.003,0.123-0.003,0.184,0l59.2-22.192    l20.072,20.072c14.169,14.169,37.143,14.169,51.312,0S387.562,424.266,373.392,410.096z M361.603,450.064    c-7.868,7.623-20.367,7.623-28.235,0l-23.36-23.368l40.16-17.208l11.888,11.888C369.853,429.424,369.65,442.268,361.603,450.064z"
         id="path13"
         style="fill:none;stroke:none" /></g></g><g
     id="g15" /><g
     id="g17" /><g
     id="g19" /><g
     id="g21" /><g
     id="g23" /><g
     id="g25" /><g
     id="g27" /><g
     id="g29" /><g
     id="g31" /><g
     id="g33" /><g
     id="g35" /><g
     id="g37" /><g
     id="g39" /><g
     id="g41" /><g
     id="g43" /><path
     inkscape:connector-curvature="0"
     id="path7-5-8"
     d="M 240,271.296 303.832,251.2 c -1.282,36.099 -10.831,71.421 -27.912,103.248 l 0,0 -10.6,17.824 C 257.815,383.716 249.344,394.497 240,404.496 230.636,394.476 222.149,383.671 214.632,372.2 214.17884,371.47843 204.08,354.449 204.08,354.449 187,322.621 177.451,287.299 176.168,251.201 L 240,271.296"
     sodipodi:nodetypes="cccccccccc"
     style="fill:#ffffff;stroke:none" /><path
     style="fill:url(#linearGradient4858);stroke:none;fill-opacity:1;color:#000000;clip-rule:nonzero;display:inline;overflow:visible;visibility:visible;opacity:1;isolation:auto;mix-blend-mode:normal;color-interpolation:sRGB;color-interpolation-filters:linearRGB;solid-color:#000000;solid-opacity:1;fill-rule:nonzero;stroke-width:1;stroke-linecap:butt;stroke-linejoin:miter;stroke-miterlimit:4;stroke-dasharray:none;stroke-dashoffset:0;stroke-opacity:1;filter-blend-mode:normal;filter-gaussianBlur-deviation:0;color-rendering:auto;image-rendering:auto;shape-rendering:auto;text-rendering:auto;enable-background:accumulate"
     d="M 240,404.496 224.632,372.2 c 0.389,-0.515 0.712,-1.076 0.96,-1.672 L 240,271.296 l 14.408,99.232 c 0.228,0.618 0.534,1.204 0.912,1.744 z"
     id="path4211"
     inkscape:connector-curvature="0"
     sodipodi:nodetypes="ccccccc" /><text
     xml:space="preserve"
     style="font-style:normal;font-weight:normal;font-size:15px;line-height:125%;font-family:sans-serif;letter-spacing:0px;word-spacing:0px;fill:#000000;fill-opacity:1;stroke:none;stroke-width:1px;stroke-linecap:butt;stroke-linejoin:miter;stroke-opacity:1"
     x="-0.27851459"
     y="531.54462"
     id="text5297"
     sodipodi:linespacing="125%"><tspan
       sodipodi:role="line"
       id="tspan5299"
       x="-0.27851459"
       y="531.54462">Forked from https://www.flaticon.com/free-icon/head_865020</tspan><tspan
       sodipodi:role="line"
       x="-0.27851459"
       y="550.29462"
       id="tspan5301" /><tspan
       sodipodi:role="line"
       x="-0.27851459"
       y="569.04462"
       id="tspan5335">&quot;Icon based on an image of pongsakornRed from Flaticon.com&quot;</tspan></text>
</svg>