<?xml version="1.0" encoding="UTF-8" standalone="no"?>
<!-- Generator: Adobe Illustrator 19.0.0, SVG Export Plug-In . SVG Version: 6.00 Build 0)  -->

<svg
   xmlns:osb="http://www.openswatchbook.org/uri/2009/osb"
   xmlns:dc="http://purl.org/dc/elements/1.1/"
   xmlns:cc="http://creativecommons.org/ns#"
   xmlns:rdf="http://www.w3.org/1999/02/22-rdf-syntax-ns#"
   xmlns:svg="http://www.w3.org/2000/svg"
   xmlns="http://www.w3.org/2000/svg"
   xmlns:xlink="http://www.w3.org/1999/xlink"
   xmlns:sodipodi="http://sodipodi.sourceforge.net/DTD/sodipodi-0.dtd"
   xmlns:inkscape="http://www.inkscape.org/namespaces/inkscape"
   version="1.1"
   id="Layer_1"
   x="0px"
   y="0px"
   viewBox="0 0 512 512"
   style="enable-background:new 0 0 512 512;"
   xml:space="preserve"
   inkscape:version="0.91 r13725"
   sodipodi:docname="Worker.svg"><metadata
     id="metadata4300"><rdf:RDF><cc:Work
         rdf:about=""><dc:format>image/svg+xml</dc:format><dc:type
           rdf:resource="http://purl.org/dc/dcmitype/StillImage" /><dc:title></dc:title></cc:Work></rdf:RDF></metadata><defs
     id="defs4298"><linearGradient
       inkscape:collect="always"
       id="linearGradient5132"><stop
         style="stop-color:#74ff62;stop-opacity:1"
         offset="0"
         id="stop5134" /><stop
         style="stop-color:#031f00;stop-opacity:1"
         offset="1"
         id="stop5136" /></linearGradient><linearGradient
       inkscape:collect="always"
       id="linearGradient4917"
       osb:paint="gradient"><stop
         style="stop-color:#005e00;stop-opacity:1"
         offset="0"
         id="stop4919" /><stop
         style="stop-color:#5cff68;stop-opacity:0"
         offset="1"
         id="stop4921" /></linearGradient><linearGradient
       inkscape:collect="always"
       xlink:href="#linearGradient5132"
       id="linearGradient5144"
       gradientUnits="userSpaceOnUse"
       x1="157.50812"
       y1="68.077385"
       x2="503.29593"
       y2="512.95538" /></defs><sodipodi:namedview
     pagecolor="#ffffff"
     bordercolor="#666666"
     borderopacity="1"
     objecttolerance="10"
     gridtolerance="10"
     guidetolerance="10"
     inkscape:pageopacity="0"
     inkscape:pageshadow="2"
     inkscape:window-width="1920"
     inkscape:window-height="1137"
     id="namedview4296"
     showgrid="false"
     inkscape:snap-intersection-paths="true"
     inkscape:object-nodes="true"
     inkscape:snap-smooth-nodes="true"
     inkscape:zoom="1.3037281"
     inkscape:cx="294.85701"
     inkscape:cy="220.46304"
     inkscape:window-x="-8"
     inkscape:window-y="-8"
     inkscape:window-maximized="1"
     inkscape:current-layer="Layer_1" /><path
     style="fill:url(#linearGradient5144);fill-opacity:1;stroke:none;stroke-opacity:1"
     d="m 351.80149,58.6785 c -15.781,-23.672 -41.338,-39.357 -69.064,-42.631 -4.119,-8.14 -12.559,-13.738 -22.288,-13.738 l -8.888,0 c -9.726,0 -18.165,5.593 -22.285,13.729 -22.122,2.581 -42.701,12.863 -58.371,29.273 -16.903,17.7 -26.555,40.989 -27.179,65.574 -0.023,0.877 -0.034,1.754 -0.034,2.636 l 0,3.177 c -7.124,1.258 -12.559,7.579 -12.559,15.166 l 0,10.521 c 0,5.446 2.808,10.23 7.024,12.967 -0.063,0.642 -0.106,1.288 -0.106,1.938 l 0,24.679 c 0,10.965 8.922,19.886 19.887,19.886 l 0.902,0 c 0.015,0.431 0.047,0.865 0.07,1.297 0.003,0.051 0.005,0.1 0.008,0.151 0.127,2.254 0.364,4.529 0.717,6.817 0.05,0.327 0.11,0.653 0.165,0.98 0.114,0.681 0.237,1.363 0.371,2.045 0.101,0.522 0.206,1.044 0.318,1.567 0.085,0.394 0.179,0.788 0.271,1.182 5.584,24.215 22.745,48.251 43.953,62.454 l -0.002,20.252 -24.549,7.558 c -6.17,-2.905 -13.375,-3.274 -19.805,-1 l -31.747,11.22 c -0.002,0 -0.003,0.001 -0.005,0.002 l -69.81,24.673 c -30.83,10.896 -52.0929996,39.048 -54.1709996,71.721 l -0.55,8.66 -1.874,29.392 -2.15399997,33.885 c -0.41,6.455 1.89199997,12.86 6.31699997,17.575 0.276,0.294 0.559,0.581 0.849,0.858 4.3469996,4.174 10.2039996,6.546 16.2519996,6.546 l 10e-4,0 73.736,0 317.599,0 73.737,0 c 6.452,0 12.685,-2.699 17.101,-7.407 4.424,-4.709 6.725,-11.116 6.315,-17.569 l -4.574,-71.937 c -2.077,-32.673 -23.34,-60.826 -54.17,-71.721 l -101.563,-35.894 c -6.066,-2.146 -12.823,-1.939 -18.749,0.529 -0.358,0.149 -0.711,0.307 -1.06,0.473 l -20.595,-6.338 -3.962,-1.223 -0.002,-20.493 c 0.453,-0.304 0.898,-0.621 1.347,-0.933 0.051,-0.035 0.1,-0.069 0.151,-0.105 20.653,-14.437 36.497,-37.409 42.152,-60.117 0.027,-0.108 0.052,-0.215 0.078,-0.323 0.243,-0.991 0.465,-1.98 0.668,-2.969 0.041,-0.199 0.083,-0.398 0.123,-0.598 0.425,-2.151 0.757,-4.294 0.988,-6.424 0.036,-0.324 0.062,-0.647 0.093,-0.97 0.067,-0.715 0.124,-1.428 0.168,-2.14 0.024,-0.378 0.048,-0.754 0.064,-1.13 0.008,-0.18 0.025,-0.363 0.031,-0.543 l 0.908,0 c 10.965,0 19.887,-8.922 19.887,-19.887 l 0,-24.679 c 0,-0.647 -0.043,-1.289 -0.106,-1.929 4.225,-2.735 7.04,-7.524 7.04,-12.976 l 0,-10.521 c 0,-7.587 -5.434,-13.909 -12.559,-15.166 l 0,-3.177 c 0,-0.881 -0.012,-1.759 -0.034,-2.633 -0.198,-7.819 -1.311,-15.582 -3.31,-23.074 -5.2801,-18.148895 -10.934,-25.79 -13.166,-29.138 z"
     id="path4991"
     inkscape:connector-curvature="0" /><path
     inkscape:connector-curvature="0"
     style="fill:#ffffff;fill-opacity:1;stroke:none"
     d="m 368.891,454.195 -55.965,0 c -3.758,0 -6.803,-3.046 -6.803,-6.803 l 0,-21.779 c 0,-3.758 3.046,-6.803 6.803,-6.803 l 55.965,0 c 3.758,0 6.803,3.046 6.803,6.803 l 0,21.779 c 0,3.756 -3.046,6.803 -6.803,6.803 z"
     id="path4246" /><path
     style="fill:#ffffff;fill-opacity:1;stroke:none;stroke-opacity:1"
     d="m 251.56049,16.8845 8.888,0 c 4.802,0 8.843,3.278 10.03,7.711 0.008,0.032 0.011,0.063 0.019,0.095 0.116,0.452 0.202,0.89 0.26,1.319 l 0,0.001 c 0.057,0.429 0.085,0.85 0.085,1.268 l 0,31.778 c 0,5.732 -4.663,10.394 -10.393,10.394 l -8.888,0 c -5.732,0 -10.394,-4.663 -10.394,-10.394 l 0,-31.777 c 0,-0.418 0.028,-0.839 0.085,-1.267 0,-0.002 0.001,-0.004 0.001,-0.004 0.057,-0.43 0.144,-0.867 0.26,-1.318 0.008,-0.03 0.01,-0.06 0.018,-0.091 1.183,-4.435 5.224,-7.715 10.029,-7.715 z"
     id="path4989"
     inkscape:connector-curvature="0" /><path
     style="fill:#ffffff;fill-opacity:1;stroke:none;stroke-opacity:1"
     d="m 165.21149,318.9025 c 2.856,-1.009 6.099,-0.833 8.825,0.48 l 2.32,1.116 c 0.021,0.01 0.04,0.025 0.06,0.035 l 64.799,31.167 -25.603,16.792 c -1.971,1.293 -4.257,1.976 -6.612,1.976 -2.667,-0.001 -5.199,-0.856 -7.32,-2.474 l -55.513,-42.362 z"
     id="path4987"
     inkscape:connector-curvature="0" /><path
     style="fill:#ffffff;fill-opacity:1;stroke:none;stroke-opacity:1"
     d="m 338.61049,194.5715 0,4.908 c 0,0.158 -0.01,0.317 -0.011,0.475 -0.007,0.699 -0.026,1.4 -0.061,2.106 -0.018,0.342 -0.046,0.687 -0.07,1.03 -0.041,0.565 -0.087,1.131 -0.146,1.699 -0.034,0.333 -0.07,0.667 -0.111,1.001 -0.082,0.677 -0.177,1.356 -0.284,2.036 -0.032,0.203 -0.058,0.404 -0.093,0.607 -4.15,24.656 -24.391,51.256 -47.182,62.513 -0.093,0.046 -0.186,0.094 -0.279,0.139 -1.719,0.839 -3.453,1.587 -5.194,2.243 -0.222,0.083 -0.444,0.162 -0.665,0.242 -0.641,0.232 -1.282,0.451 -1.924,0.657 -0.241,0.077 -0.482,0.157 -0.721,0.229 -0.841,0.257 -1.683,0.497 -2.526,0.707 l -0.989,0.246 c -0.632,0.158 -1.251,0.309 -1.86,0.458 -8.664,2.113 -15.013,3.324 -20.97,3.324 -0.899,0 -1.804,-0.03 -2.718,-0.082 -5.647,-0.324 -11.754,-1.633 -20.319,-3.792 l -0.057,-0.015 c -0.821,-0.207 -1.639,-0.445 -2.459,-0.697 -0.181,-0.056 -0.363,-0.116 -0.543,-0.174 l -0.218,-0.071 c -0.201,-0.065 -0.407,-0.14 -0.608,-0.208 -0.405,-0.137 -0.811,-0.272 -1.215,-0.419 -0.257,-0.092 -0.514,-0.185 -0.768,-0.28 -0.05,-0.019 -0.099,-0.041 -0.148,-0.059 -1.704,-0.654 -3.401,-1.39 -5.083,-2.22 -0.026,-0.013 -0.052,-0.026 -0.077,-0.039 -25.55,-12.64 -47.921,-44.651 -47.921,-71.456 l 0,-41.86 165.225,0 0,36.696 c -0.002,0.018 -0.005,0.037 -0.005,0.056 z"
     id="path4985"
     inkscape:connector-curvature="0" /><path
     style="fill:#ffffff;fill-opacity:1;stroke:none;stroke-opacity:1"
     d="m 312.48349,315.4615 -56.488,27.17 -28.994,-13.946 -27.493,-13.224 10.782,-3.327 c 5.386,-1.662 9.003,-6.564 9.003,-12.198 l 0.002,-13.708 c 2.194,0.909 4.409,1.706 6.641,2.38 1.076,0.327 2.044,0.601 2.92,0.822 0.003,0.001 0.005,0.001 0.008,0.002 0.008,0.002 0.016,0.005 0.024,0.007 10.186,2.569 17.715,4.122 25.15,4.306 0.347,0.009 0.694,0.011 1.041,0.013 0.149,10e-4 0.296,0.005 0.445,0.005 l 0.002,0 c 7.867,0 15.619,-1.545 26.344,-4.212 l 0.988,-0.246 c 0.99,-0.246 1.982,-0.527 2.974,-0.824 0.26,-0.078 0.518,-0.162 0.777,-0.243 0.799,-0.251 1.598,-0.517 2.397,-0.801 0.208,-0.074 0.417,-0.146 0.625,-0.222 1.023,-0.374 2.045,-0.764 3.067,-1.19 l 0.001,13.913 c 0.002,5.634 3.62,10.535 9.008,12.197 l 4.732,1.457 z"
     id="path4983"
     inkscape:connector-curvature="0" /><path
     style="fill:#ffffff;fill-opacity:1;stroke:none;stroke-opacity:1"
     d="m 335.54749,320.5465 c 0.001,-10e-4 0.003,-0.002 0.004,-0.002 l 2.413,-1.16 c 0.107,-0.052 0.218,-0.089 0.326,-0.138 2.659,-1.176 5.755,-1.311 8.497,-0.342 l 19.044,6.73 -55.513,42.362 c -2.122,1.619 -4.653,2.475 -7.32,2.475 -2.355,0 -4.642,-0.684 -6.613,-1.976 l -25.609,-16.795 z"
     id="path4981"
     inkscape:connector-curvature="0" /><path
     style="fill:#ffffff;fill-opacity:1;stroke:none;stroke-opacity:1"
     d="m 359.36049,181.9705 c 0,2.93 -2.383,5.314 -5.314,5.314 l -0.86,0 0,-29.505 6.174,0 z"
     id="path4979"
     inkscape:connector-curvature="0" /><path
     style="fill:#ffffff;fill-opacity:1;stroke:none;stroke-opacity:1"
     d="m 152.62449,181.9715 0,-24.192 6.19,0 0,29.505 -0.877,0 c -2.93,0 -5.313,-2.383 -5.313,-5.313 z"
     id="path4977"
     inkscape:connector-curvature="0" /><path
     style="fill:#ffffff;fill-opacity:1;stroke:none;stroke-opacity:1"
     d="m 495.01149,492.3155 c -1.698,1.81 -3.998,2.805 -6.475,2.805 l -66.45,0 0,-149.607 26.266,9.283 c 25.316,8.948 42.776,32.069 44.482,58.905 l 4.573,71.938 c 0.099,1.556 -0.196,3.065 -0.847,4.422 -0.391,0.814 -0.91,1.573 -1.549,2.254 z"
     id="path4262"
     inkscape:connector-curvature="0" /><g
     style="fill:#ffffff;fill-opacity:1"
     id="g4266" /><g
     style="fill:#ffffff;fill-opacity:1"
     id="g4268" /><g
     style="fill:#ffffff;fill-opacity:1"
     id="g4270" /><g
     style="fill:#ffffff;fill-opacity:1"
     id="g4272" /><g
     style="fill:#ffffff;fill-opacity:1"
     id="g4274" /><g
     style="fill:#ffffff;fill-opacity:1"
     id="g4276" /><g
     style="fill:#ffffff;fill-opacity:1"
     id="g4278" /><g
     style="fill:#ffffff;fill-opacity:1"
     id="g4280" /><g
     style="fill:#ffffff;fill-opacity:1"
     id="g4282" /><g
     style="fill:#ffffff;fill-opacity:1"
     id="g4284" /><g
     style="fill:#ffffff;fill-opacity:1"
     id="g4286" /><g
     style="fill:#ffffff;fill-opacity:1"
     id="g4288" /><g
     style="fill:#ffffff;fill-opacity:1"
     id="g4290" /><g
     style="fill:#ffffff;fill-opacity:1"
     id="g4292" /><g
     style="fill:#ffffff;fill-opacity:1"
     id="g4294" /><path
     style="fill:#ffffff;fill-opacity:1;stroke:none;stroke-opacity:1"
     d="m 18.62049,422.3585 0.55,-8.66 c 1.066,-16.772 8.287,-32.094 19.732,-43.411 0.573,-0.566 1.155,-1.122 1.748,-1.667 1.186,-1.091 2.414,-2.141 3.681,-3.146 0.633,-0.503 1.276,-0.995 1.929,-1.476 1.306,-0.961 2.65,-1.878 4.031,-2.746 4.142,-2.605 8.613,-4.782 13.359,-6.459 l 26.265,-9.283 0,149.607 -66.45,0 c -2.477,0 -4.777,-0.996 -6.475,-2.805 -1.278,-1.362 -2.077,-3.036 -2.33,-4.839 -0.084,-0.601 -0.108,-1.216 -0.068,-1.838 l 2.153,-33.885 z"
     id="path4993"
     inkscape:connector-curvature="0" /><text
     xml:space="preserve"
     style="font-style:normal;font-weight:normal;font-size:15px;line-height:125%;font-family:sans-serif;letter-spacing:0px;word-spacing:0px;fill:#000000;fill-opacity:1;stroke:none;stroke-width:1px;stroke-linecap:butt;stroke-linejoin:miter;stroke-opacity:1"
     x="-112.75357"
     y="568.76031"
     id="text5297"
     sodipodi:linespacing="125%"><tspan
       sodipodi:role="line"
       id="tspan5299"
       x="-112.75357"
       y="568.76031">Forked from https://www.flaticon.com/free-icon/laborers_479357</tspan><tspan
       sodipodi:role="line"
       x="-112.75357"
       y="587.51031"
       id="tspan5301" /><tspan
       sodipodi:role="line"
       x="-112.75357"
       y="606.26031"
       id="tspan5303">&quot;Icon based on an image of Freepik from Flaticon.com&quot;</tspan></text>
</svg>